<svg width="32" height="32" viewBox="0 0 32 32" fill="none" xmlns="http://www.w3.org/2000/svg">
<path d="M9.92416 7.1333C10.7762 7.1333 11.5642 7.19997 12.2842 7.3973C13.0055 7.5293 13.5962 7.7933 14.1202 8.12263C14.6455 8.45241 15.0388 8.91419 15.3002 9.50797C15.5628 10.1013 15.6948 10.828 15.6948 11.6186C15.6948 12.5426 15.4975 13.3333 15.0388 13.9266C14.6455 14.5213 13.9895 15.048 13.2028 15.444C14.3175 15.7746 15.1695 16.368 15.6948 17.1586C16.2202 17.9493 16.5468 18.94 16.5468 20.0613C16.5468 20.9853 16.3495 21.776 16.0215 22.436C15.6948 23.096 15.1695 23.6893 14.5788 24.0853C13.9369 24.5093 13.2278 24.8213 12.4815 25.008C11.6948 25.2066 10.9082 25.3386 10.1215 25.3386H1.3335V7.1333H9.92416ZM9.39883 14.52C10.1202 14.52 10.7108 14.3226 11.1695 13.9933C11.6282 13.664 11.8255 13.0693 11.8255 12.344C11.8255 11.948 11.7588 11.552 11.6282 11.2893C11.4975 11.0266 11.3002 10.8266 11.0388 10.6293C10.7716 10.4792 10.4842 10.3683 10.1855 10.3C9.8575 10.2333 9.53083 10.2333 9.13616 10.2333H5.3335V14.5213L9.39883 14.52ZM9.59616 22.304C9.9895 22.304 10.3828 22.2373 10.7108 22.172C11.0388 22.1053 11.3668 21.9746 11.6282 21.776C11.8943 21.5818 12.1176 21.3349 12.2842 21.0506C12.4148 20.7213 12.5468 20.3253 12.5468 19.864C12.5468 18.94 12.2842 18.28 11.7602 17.8186C11.2348 17.4226 10.5135 17.2253 9.6615 17.2253H5.3335V22.3053L9.59616 22.304ZM22.2522 22.2373C22.7766 22.7653 23.5633 23.0293 24.6122 23.0293C25.3335 23.0293 25.9895 22.832 26.5135 22.5026C27.0388 22.1062 27.3668 21.7102 27.4975 21.3146H30.7108C30.1855 22.8973 29.3988 24.0186 28.3508 24.744C27.3002 25.404 26.0548 25.8 24.5468 25.8C23.5821 25.8014 22.6257 25.6223 21.7268 25.272C20.9177 24.9702 20.1964 24.4716 19.6282 23.8213C19.0179 23.2151 18.5676 22.467 18.3175 21.644C17.9895 20.7866 17.8575 19.864 17.8575 18.808C17.8575 17.8186 17.9895 16.896 18.3175 16.0373C18.6321 15.2101 19.0993 14.4493 19.6948 13.7946C20.2842 13.2013 21.0055 12.6746 21.7922 12.344C22.6679 11.9924 23.6032 11.8131 24.5468 11.816C25.6615 11.816 26.6455 12.0146 27.4975 12.476C28.3508 12.9373 29.0055 13.4653 29.5295 14.2573C30.0548 14.9826 30.4495 15.84 30.7108 16.764C30.8415 17.6866 30.9068 18.6106 30.8415 19.6653H21.3335C21.3335 20.7213 21.7268 21.7106 22.2522 22.2386M26.3828 15.3133C25.9242 14.852 25.2028 14.588 24.3495 14.588C23.8492 14.5805 23.3544 14.6934 22.9068 14.9173C22.5135 15.116 22.2522 15.38 21.9895 15.644C21.7466 15.8979 21.5867 16.2197 21.5308 16.5666C21.4642 16.8973 21.3988 17.16 21.3988 17.424H27.3002C27.1695 16.4346 26.8415 15.776 26.3828 15.3133ZM20.6122 8.38663H27.9562V10.168H20.6135L20.6122 8.38663Z" fill="#EDE9F1"/>
</svg>
