<svg width="32" height="32" viewBox="0 0 32 32" fill="none" xmlns="http://www.w3.org/2000/svg">
<path d="M8.75691 6.67603C8.75659 7.30684 8.5057 7.91168 8.05943 8.3575C7.61316 8.80333 7.00807 9.05361 6.37727 9.0533C5.74646 9.05298 5.14162 8.80209 4.69579 8.35582C4.24997 7.90955 3.99968 7.30446 4 6.67365C4.00032 6.04285 4.2512 5.438 4.69747 4.99218C5.14374 4.54636 5.74884 4.29607 6.37964 4.29639C7.01045 4.2967 7.61529 4.54759 8.06112 4.99386C8.50694 5.44013 8.75722 6.04523 8.75691 6.67603ZM8.82826 10.8145H4.07135V25.7037H8.82826V10.8145ZM16.3442 10.8145H11.6111V25.7037H16.2966V17.8904C16.2966 13.5379 21.9692 13.1335 21.9692 17.8904V25.7037H26.6667V16.2731C26.6667 8.93556 18.2707 9.20908 16.2966 12.8124L16.3442 10.8145Z" fill="#EDE9F1"/>
</svg>
