<svg width="23" height="23" viewBox="0 0 23 23" fill="none" xmlns="http://www.w3.org/2000/svg">
<path fill-rule="evenodd" clip-rule="evenodd" d="M5.5695 1.29297C4.43519 1.29297 3.34732 1.74346 2.54508 2.54539C1.74285 3.34731 1.29194 4.43501 1.2915 5.56933V16.9773C1.2915 18.1119 1.74222 19.2 2.5445 20.0023C3.34678 20.8046 4.43491 21.2553 5.5695 21.2553H16.9775C18.1118 21.2549 19.1995 20.804 20.0014 20.0017C20.8034 19.1995 21.2539 18.1116 21.2539 16.9773V5.56933C21.2534 4.4353 20.8027 3.34784 20.0009 2.54597C19.199 1.74409 18.1115 1.2934 16.9775 1.29297H5.5695ZM18.208 5.5759C18.208 5.90268 18.0782 6.21608 17.8471 6.44715C17.616 6.67823 17.3026 6.80804 16.9759 6.80804C16.6491 6.80804 16.3357 6.67823 16.1046 6.44715C15.8735 6.21608 15.7437 5.90268 15.7437 5.5759C15.7437 5.24911 15.8735 4.93571 16.1046 4.70464C16.3357 4.47357 16.6491 4.34375 16.9759 4.34375C17.3026 4.34375 17.616 4.47357 17.8471 4.70464C18.0782 4.93571 18.208 5.24911 18.208 5.5759ZM11.2751 7.85618C10.3689 7.85618 9.4997 8.2162 8.85886 8.85704C8.21802 9.49788 7.858 10.367 7.858 11.2733C7.858 12.1796 8.21802 13.0488 8.85886 13.6896C9.4997 14.3304 10.3689 14.6905 11.2751 14.6905C12.1814 14.6905 13.0506 14.3304 13.6914 13.6896C14.3323 13.0488 14.6923 12.1796 14.6923 11.2733C14.6923 10.367 14.3323 9.49788 13.6914 8.85704C13.0506 8.2162 12.1814 7.85618 11.2751 7.85618ZM6.2135 11.2733C6.2135 9.93133 6.74661 8.6443 7.69554 7.69537C8.64448 6.74643 9.93151 6.21333 11.2735 6.21333C12.6155 6.21333 13.9025 6.74643 14.8515 7.69537C15.8004 8.6443 16.3335 9.93133 16.3335 11.2733C16.3335 12.6153 15.8004 13.9024 14.8515 14.8513C13.9025 15.8002 12.6155 16.3333 11.2735 16.3333C9.93151 16.3333 8.64448 15.8002 7.69554 14.8513C6.74661 13.9024 6.2135 12.6153 6.2135 11.2733Z" fill="#EDE9F1"/>
</svg>
